<svg xmlns="http://www.w3.org/2000/svg" viewBox="0 0 38 24">
    <path opacity=".07" d="M35 0H3C1.3 0 0 1.3 0 3v18c0 1.7 1.4 3 3 3h32c1.7 0 3-1.3 3-3V3c0-1.7-1.4-3-3-3Z" fill="#000"></path>
    <path d="M35 1c1.1 0 2 .9 2 2v18c0 1.1-.9 2-2 2H3c-1.1 0-2-.9-2-2V3c0-1.1.9-2 2-2h32Z" fill="#fff"></path>
    <mask id="a" style="mask-type:alpha" maskUnits="userSpaceOnUse" x="7" y="5" width="24" height="15">
        <path fill="#C4C4C4" d="M7 5h23.75v15H7z"></path>
    </mask>
    <g mask="url(#a)">
        <path d="M11.651 5h5.928c.828 0 1.342.674 1.15 1.505l-2.76 11.849c-.195.827-1.024 1.502-1.852 1.502H8.19c-.827 0-1.343-.675-1.15-1.502l2.762-11.85C9.995 5.675 10.822 5 11.652 5Z" fill="#E21836"></path>
        <path d="M17.086 5h6.817c.827 0 .454.674.26 1.505l-2.76 11.849c-.194.827-.133 1.502-.962 1.502h-6.817c-.83 0-1.343-.675-1.148-1.502l2.76-11.85C15.43 5.675 16.258 5 17.086 5Z" fill="#00447C"></path>
        <path d="M23.632 5h5.928c.829 0 1.344.674 1.149 1.505l-2.76 11.849c-.194.827-1.023 1.502-1.852 1.502h-5.925c-.83 0-1.343-.675-1.15-1.502l2.76-11.85C21.977 5.675 22.804 5 23.633 5Z" fill="#007B84"></path>
        <path d="M13.2 8.797c-.61.006-.79 0-.848-.013a932.73 932.73 0 0 1-.434 2.004c-.089.384-.153.657-.372.834a.663.663 0 0 1-.438.152c-.27 0-.428-.134-.454-.388l-.005-.088.082-.517s.432-1.73.51-1.958a.17.17 0 0 0 .005-.026c-.84.008-.989 0-1-.013a3.29 3.29 0 0 0-.026.126l-.44 1.949-.038.165-.074.54c0 .16.032.292.095.402.2.351.773.404 1.098.404.417 0 .809-.089 1.073-.25.46-.272.58-.696.687-1.074l.05-.193s.445-1.796.52-2.03c.003-.013.004-.02.008-.026Zm1.513 1.45c-.108 0-.304.025-.48.111-.064.033-.124.071-.188.109l.058-.208-.032-.035c-.373.076-.456.086-.801.134l-.029.02c-.04.332-.076.581-.224 1.233-.056.24-.115.484-.174.723l.016.03a8.61 8.61 0 0 1 .768-.013l.024-.027c.04-.2.044-.246.13-.651.041-.192.126-.614.168-.764a.573.573 0 0 1 .225-.07c.172 0 .15.15.144.21-.007.1-.07.428-.134.71l-.043.181c-.03.135-.063.265-.093.398l.013.027c.348-.019.454-.019.752-.014l.035-.027c.054-.312.07-.395.165-.85l.048-.209c.093-.408.14-.615.07-.784-.075-.19-.254-.235-.418-.235Zm1.69.427c-.185.036-.303.06-.42.075-.117.018-.23.035-.41.06l-.013.013-.013.01c-.019.133-.032.248-.057.384-.02.14-.053.299-.105.527a2.07 2.07 0 0 1-.085.298c-.023.061-.047.121-.093.293l.01.016.01.015c.167-.008.276-.014.389-.015.112-.004.228 0 .408.001l.016-.013.017-.014c.026-.155.03-.197.046-.272.015-.082.042-.194.11-.494.03-.141.066-.282.098-.426l.104-.425-.005-.017-.007-.016Zm.004-.577c-.168-.1-.464-.068-.662.07-.198.134-.22.325-.053.425.165.097.461.068.658-.07.198-.138.223-.327.057-.425Zm1.017 2.299c.34 0 .689-.094.951-.372.203-.226.295-.561.327-.7.105-.458.023-.672-.079-.803-.155-.198-.43-.262-.714-.262-.17 0-.578.017-.897.31-.228.212-.334.5-.398.775-.064.28-.138.786.327.974.143.061.35.078.483.078Zm-.027-1.031c.079-.347.171-.639.408-.639.185 0 .198.217.116.565-.015.078-.082.365-.174.487-.064.09-.14.146-.223.146-.024 0-.172 0-.175-.22 0-.108.021-.219.048-.34Zm2.156.986.026-.027c.038-.2.044-.246.128-.651.042-.192.128-.614.169-.764.076-.035.15-.07.225-.07.171 0 .15.15.144.21-.007.1-.07.428-.135.71l-.04.181c-.031.135-.065.265-.095.398l.013.027c.35-.019.451-.019.75-.014l.037-.027c.052-.312.066-.395.165-.85l.046-.209c.094-.408.141-.615.072-.784-.077-.19-.257-.235-.419-.235a1.169 1.169 0 0 0-.666.22l.054-.207-.029-.035c-.373.076-.458.086-.803.134l-.026.02c-.042.332-.076.58-.224 1.233-.056.24-.115.484-.174.723l.016.03c.354-.018.46-.018.766-.013Zm2.567.014.153-.743s.111-.466.118-.483c0 0 .035-.048.07-.068h.052c.485 0 1.033 0 1.462-.316a1.56 1.56 0 0 0 .582-.925 1.4 1.4 0 0 0 .04-.323.677.677 0 0 0-.116-.411c-.22-.307-.656-.312-1.16-.315l-.247.003c-.645.008-.903.005-1.01-.008l-.026.13-.23 1.073-.579 2.382c.563-.007.794-.007.89.004Zm.427-1.901.245-1.064.008-.055.003-.041.098.01.518.044c.2.078.283.277.225.537a.78.78 0 0 1-.404.534c-.164.082-.363.089-.57.089h-.133l.01-.054Zm1.529.92c-.065.277-.14.782.323.962.147.063.28.082.413.075a.682.682 0 0 0 .395-.181l-.033.126.021.027c.333-.014.436-.014.796-.011l.033-.025c.052-.31.102-.61.238-1.201l.202-.846-.01-.031a14.98 14.98 0 0 1-.83.134l-.027.022-.01.084a.512.512 0 0 0-.261-.214c-.16-.063-.533.018-.854.31-.226.21-.335.495-.396.77Zm.781.018c.08-.341.171-.63.408-.63.15 0 .229.139.213.374l-.043.191-.074.302a.732.732 0 0 1-.088.177c-.06.087-.206.14-.29.14-.023 0-.17 0-.175-.215a1.484 1.484 0 0 1 .05-.34Zm4.079-1.126-.029-.033a8.73 8.73 0 0 1-.772.132l-.025.025-.004.016-.001-.006c-.252.581-.245.456-.45.913 0-.02 0-.034-.002-.056l-.051-.991-.032-.033c-.386.075-.395.087-.751.132l-.028.025c-.004.012-.004.025-.006.04l.002.004c.045.228.034.177.079.536.02.176.048.353.07.527.034.291.054.434.097.879-.24.397-.298.547-.529.895l.002.003-.163.258c-.019.027-.036.046-.06.054a.245.245 0 0 1-.106.015h-.09l-.135.447.46.008c.27-.002.44-.128.532-.298l.29-.496h-.005l.03-.035c.195-.42 1.677-2.961 1.677-2.961Zm-4.86 5.864h-.195l.723-2.392h.24l.076-.246.007.274c-.009.17.124.32.474.294h.405l.14-.46h-.153c-.088 0-.128-.022-.123-.07l-.008-.278h-.749v.001c-.242.005-.966.024-1.112.063-.178.045-.364.18-.364.18l.073-.247h-.701l-.146.49-.733 2.427h-.142l-.14.457h1.397l-.047.153h.688l.046-.153h.193l.151-.493Zm-.573-1.906c-.112.031-.321.126-.321.126l.186-.612h.557l-.135.446s-.172.01-.287.04Zm.01.873s-.174.022-.29.048c-.113.035-.325.143-.325.143l.191-.636h.56l-.135.445Zm-.311 1.038h-.56l.163-.536h.557l-.16.536Zm1.345-1.483h.806l-.116.375h-.816l-.123.41h.714l-.54.76a.223.223 0 0 1-.11.092.32.32 0 0 1-.145.042h-.198l-.136.449h.518a.63.63 0 0 0 .546-.283l.37-.508.08.515a.242.242 0 0 0 .134.175c.051.026.105.071.18.078.082.003.14.006.18.006h.254l.153-.502h-.1c-.058 0-.157-.01-.174-.028-.017-.022-.017-.056-.026-.107l-.081-.517h-.33l.144-.172h.815l.125-.41h-.754l.117-.375h.752l.14-.462h-2.242l-.137.462Zm-6.802 1.588.188-.626h.773l.14-.465h-.773l.119-.385h.755l.14-.45h-1.89l-.138.45h.43l-.115.385h-.43l-.143.473h.43l-.251.828c-.034.11.015.15.047.202.032.05.065.082.138.1a.833.833 0 0 0 .198.028h.871l.156-.515-.387.053c-.074 0-.28-.01-.258-.078Zm.089-2.994-.196.354a.411.411 0 0 1-.114.147c-.03.019-.089.027-.175.027h-.102l-.136.452h.339a.77.77 0 0 0 .348-.09c.064-.034.081-.014.131-.062l.115-.1h1.059l.14-.47h-.775l.136-.258h-.77Zm1.564 3.003c-.018-.026-.005-.072.022-.167l.29-.959h1.03c.15-.002.258-.004.329-.009a.675.675 0 0 0 .248-.083.463.463 0 0 0 .18-.166c.044-.062.116-.196.177-.403l.364-1.213-1.069.006s-.329.049-.474.102c-.146.06-.355.227-.355.227l.097-.332h-.66l-.925 3.066a1.898 1.898 0 0 0-.06.257c-.002.056.07.111.118.153.055.042.137.035.215.042.083.006.2.01.362.01h.507l.156-.526-.454.043a.12.12 0 0 1-.098-.048Zm.498-1.773h1.082l-.068.215c-.01.006-.033-.01-.143.003h-.937l.067-.218Zm.217-.723h1.091l-.078.26s-.514-.005-.597.01a1.217 1.217 0 0 0-.574.256l.158-.526Zm.82 1.66a.115.115 0 0 1-.042.067c-.022.014-.057.02-.11.02h-.155l.01-.263h-.642l-.026 1.283c0 .093.008.146.076.19.068.053.276.06.557.06h.402l.145-.48-.35.018-.116.007c-.016-.006-.03-.013-.048-.03-.015-.014-.04-.005-.035-.098l.002-.329.367-.015a.475.475 0 0 0 .355-.126c.07-.059.092-.126.118-.218l.061-.291h-.504l-.064.205Z" fill="#FEFEFE"></path>
    </g>
</svg>